<?xml version="1.0" encoding="UTF-8" standalone="no"?>
<svg
   width="600"
   height="200"
   overflow="hidden"
   version="1.1"
   id="svg66"
   sodipodi:docname="Slide2.SVG"
   inkscape:version="1.2.2 (732a01da63, 2022-12-09)"
   xmlns:inkscape="http://www.inkscape.org/namespaces/inkscape"
   xmlns:sodipodi="http://sodipodi.sourceforge.net/DTD/sodipodi-0.dtd"
   xmlns="http://www.w3.org/2000/svg"
   xmlns:svg="http://www.w3.org/2000/svg">
  <defs
     id="defs70" />
  <sodipodi:namedview
     id="namedview68"
     pagecolor="#ffffff"
     bordercolor="#000000"
     borderopacity="0.25"
     inkscape:showpageshadow="2"
     inkscape:pageopacity="0.0"
     inkscape:pagecheckerboard="0"
     inkscape:deskcolor="#d1d1d1"
     showgrid="false"
     inkscape:zoom="1.1929687"
     inkscape:cx="639.5809"
     inkscape:cy="359.60709"
     inkscape:window-width="3440"
     inkscape:window-height="1334"
     inkscape:window-x="-11"
     inkscape:window-y="-11"
     inkscape:window-maximized="1"
     inkscape:current-layer="svg66" />
  <path
     d="m 93.5,34.650417 c 0,-4.051 3.283,-7.334 7.334,-7.334 h 53.333 c 4.05,0 7.333,3.283 7.333,7.334 v 29.333 c 0,4.05 -3.283,7.333 -7.333,7.333 h -53.333 c -4.051,0 -7.334,-3.283 -7.334,-7.333 z"
     stroke="#042433"
     stroke-width="3"
     stroke-miterlimit="8"
     fill="none"
     fill-rule="evenodd"
     id="path4" />
  <text
     font-family="'Cambria Math', 'Cambria Math_MSFontService', sans-serif"
     font-weight="400"
     font-size="26.6667px"
     id="text6"
     x="109.599"
     y="57.816422">𝑆</text>
  <text
     font-family="'Cambria Math', 'Cambria Math_MSFontService', sans-serif"
     font-weight="400"
     font-size="19.4667px"
     id="text8"
     x="122.593"
     y="62.816422">𝐻</text>
  <path
     d="m 265.5,34.649417 c 0,-4.05 3.283,-7.333 7.333,-7.333 h 54.334 c 4.05,0 7.333,3.283 7.333,7.333 v 29.334 c 0,4.05 -3.283,7.333 -7.333,7.333 h -54.334 c -4.05,0 -7.333,-3.283 -7.333,-7.333 z"
     stroke="#042433"
     stroke-width="3"
     stroke-miterlimit="8"
     fill="none"
     fill-rule="evenodd"
     id="path10" />
  <text
     font-family="'Cambria Math', 'Cambria Math_MSFontService', sans-serif"
     font-weight="400"
     font-size="26.6667px"
     id="text12"
     x="283.987"
     y="57.816422">𝐼</text>
  <text
     font-family="'Cambria Math', 'Cambria Math_MSFontService', sans-serif"
     font-weight="400"
     font-size="19.4667px"
     id="text14"
     x="292.59399"
     y="62.816422">𝐻</text>
  <path
     d="m 437.5,34.649417 c 0,-4.05 3.283,-7.333 7.333,-7.333 h 54.334 c 4.05,0 7.333,3.283 7.333,7.333 v 29.334 c 0,4.05 -3.283,7.333 -7.333,7.333 h -54.334 c -4.05,0 -7.333,-3.283 -7.333,-7.333 z"
     stroke="#042433"
     stroke-width="3"
     stroke-miterlimit="8"
     fill="none"
     fill-rule="evenodd"
     id="path16" />
  <text
     font-family="'Cambria Math', 'Cambria Math_MSFontService', sans-serif"
     font-weight="400"
     font-size="26.6667px"
     id="text18"
     x="452.21198"
     y="57.816422">𝑅</text>
  <text
     font-family="'Cambria Math', 'Cambria Math_MSFontService', sans-serif"
     font-weight="400"
     font-size="19.4667px"
     id="text20"
     x="468.758"
     y="62.816422">𝐻</text>
  <path
     d="m 161,46.816417 h 93.431 v 4 H 161 Z m 91.431,-4 12,6 -12,6 z"
     id="path22" />
  <path
     d="m 334,46.816417 h 93.431 v 4 H 334 Z m 91.431,-4 12,6 -12,6 z"
     id="path24" />
  <text
     font-family="'Cambria Math', 'Cambria Math_MSFontService', sans-serif"
     font-weight="400"
     font-size="26.6667px"
     id="text26"
     x="200.39999"
     y="35.816418">𝜆</text>
  <text
     font-family="'Cambria Math', 'Cambria Math_MSFontService', sans-serif"
     font-weight="400"
     font-size="19.4667px"
     id="text28"
     x="214.233"
     y="41.816422">𝐻</text>
  <text
     font-family="'Cambria Math', 'Cambria Math_MSFontService', sans-serif"
     font-weight="400"
     font-size="26.6667px"
     id="text30"
     x="368.82401"
     y="33.816418">𝛾</text>
  <text
     font-family="'Cambria Math', 'Cambria Math_MSFontService', sans-serif"
     font-weight="400"
     font-size="19.4667px"
     id="text32"
     x="381.93701"
     y="39.816422">𝐻</text>
  <path
     d="m 93.5,145.48342 c 0,-3.958 3.209,-7.167 7.167,-7.167 h 53.666 c 3.958,0 7.167,3.209 7.167,7.167 v 28.666 c 0,3.958 -3.209,7.167 -7.167,7.167 h -53.666 c -3.958,0 -7.167,-3.209 -7.167,-7.167 z"
     stroke="#042433"
     stroke-width="3"
     stroke-miterlimit="8"
     fill="none"
     fill-rule="evenodd"
     id="path34" />
  <text
     font-family="'Cambria Math', 'Cambria Math_MSFontService', sans-serif"
     font-weight="400"
     font-size="26.6667px"
     id="text36"
     x="110.849"
     y="167.81642">𝑆</text>
  <text
     font-family="'Cambria Math', 'Cambria Math_MSFontService', sans-serif"
     font-weight="400"
     font-size="19.4667px"
     id="text38"
     x="123.843"
     y="173.81642">𝐶</text>
  <path
     d="m 265.5,145.48342 c 0,-3.958 3.209,-7.167 7.167,-7.167 h 54.666 c 3.958,0 7.167,3.209 7.167,7.167 v 28.666 c 0,3.958 -3.209,7.167 -7.167,7.167 h -54.666 c -3.958,0 -7.167,-3.209 -7.167,-7.167 z"
     stroke="#042433"
     stroke-width="3"
     stroke-miterlimit="8"
     fill="none"
     fill-rule="evenodd"
     id="path40" />
  <text
     font-family="'Cambria Math', 'Cambria Math_MSFontService', sans-serif"
     font-weight="400"
     font-size="26.6667px"
     id="text42"
     x="285.237"
     y="167.81642">𝐼</text>
  <text
     font-family="'Cambria Math', 'Cambria Math_MSFontService', sans-serif"
     font-weight="400"
     font-size="19.4667px"
     id="text44"
     x="293.84399"
     y="173.81642">𝐶</text>
  <path
     d="m 437.5,145.48342 c 0,-3.958 3.209,-7.167 7.167,-7.167 h 54.666 c 3.958,0 7.167,3.209 7.167,7.167 v 28.666 c 0,3.958 -3.209,7.167 -7.167,7.167 h -54.666 c -3.958,0 -7.167,-3.209 -7.167,-7.167 z"
     stroke="#042433"
     stroke-width="3"
     stroke-miterlimit="8"
     fill="none"
     fill-rule="evenodd"
     id="path46" />
  <text
     font-family="'Cambria Math', 'Cambria Math_MSFontService', sans-serif"
     font-weight="400"
     font-size="26.6667px"
     id="text48"
     x="453.46198"
     y="167.81642">𝑅</text>
  <text
     font-family="'Cambria Math', 'Cambria Math_MSFontService', sans-serif"
     font-weight="400"
     font-size="19.4667px"
     id="text50"
     x="470.008"
     y="173.81642">𝐶</text>
  <path
     d="m 161,156.81642 h 93.431 v 4 H 161 Z m 91.431,-4 12,6 -12,6 z"
     id="path52" />
  <path
     d="m 334,156.81642 h 93.431 v 4 H 334 Z m 91.431,-4 12,6 -12,6 z"
     id="path54" />
  <text
     font-family="'Cambria Math', 'Cambria Math_MSFontService', sans-serif"
     font-weight="400"
     font-size="26.6667px"
     id="text56"
     x="196.03299"
     y="147.81642">𝜆</text>
  <text
     font-family="'Cambria Math', 'Cambria Math_MSFontService', sans-serif"
     font-weight="400"
     font-size="19.4667px"
     id="text58"
     x="209.867"
     y="152.81642">𝐶</text>
  <text
     font-family="'Cambria Math', 'Cambria Math_MSFontService', sans-serif"
     font-weight="400"
     font-size="26.6667px"
     id="text60"
     x="368.82401"
     y="144.81642">𝛾</text>
  <text
     font-family="'Cambria Math', 'Cambria Math_MSFontService', sans-serif"
     font-weight="400"
     font-size="19.4667px"
     id="text62"
     x="381.93701"
     y="149.81642">𝐶</text>
</svg>
